<svg width="270" height="273" viewBox="0 0 270 273" fill="none" xmlns="http://www.w3.org/2000/svg">
<path d="M123.689 192.394V157.665C122.309 149.374 120.155 145.562 113.849 140.254L86.5361 124.778C80.9336 121.766 79.3631 119.527 79.3631 114.552V94.4699L71.9142 99.2602V129.199L105.02 148.637C109.109 150.898 110.538 152.874 111.55 157.665V177.839C116.975 182.722 119.633 185.908 123.689 192.394Z" fill="black"/>
<path d="M123.689 272.447V215.701C122.309 194.974 118.171 186.038 97.3876 174.891L44.9836 144.584L33.842 151.032L97.3876 188.802C108.187 194.796 111.09 200.685 112.285 215.701V245.087C112.285 254.76 109.789 258.572 100.882 262.498L83.5014 272.447H123.689Z" fill="black"/>
<path fill-rule="evenodd" clip-rule="evenodd" d="M0 131.871V89.5875L34.0259 69.2288L66.7643 89.5875V131.871L34.0259 151.124L0 131.871ZM7.82136 94.3962V126.96L34.0259 141.788L59.2389 126.96V94.3962L34.0259 78.7172L7.82136 94.3962Z" fill="black"/>
<path fill-rule="evenodd" clip-rule="evenodd" d="M38.624 81.3887V39.1053L72.6499 18.7466L105.388 39.1053V81.3887L72.6499 100.642L38.624 81.3887ZM46.4453 43.914V76.478L72.6499 91.3055L97.8629 76.478V43.914L72.6499 28.235L46.4453 43.914Z" fill="black"/>
<path d="M146.771 192.947V158.217C148.151 149.927 150.305 146.114 156.611 140.807L183.924 125.33C189.526 122.318 191.097 120.079 191.097 115.105V95.0226L198.546 97.6941V129.752L165.439 149.19C161.351 151.451 159.922 153.427 158.91 158.217V178.392C153.484 183.274 150.826 186.461 146.771 192.947Z" fill="black"/>
<path d="M146.771 273V216.254C148.151 195.526 152.289 186.591 173.072 175.444L225.476 145.136L236.618 151.585L173.072 189.354C162.273 195.348 159.37 201.238 158.174 216.254V245.64C158.174 255.313 160.671 259.125 169.578 263.051L186.958 273H146.771Z" fill="black"/>
<path fill-rule="evenodd" clip-rule="evenodd" d="M270 132.608V90.3244L235.974 69.9658L203.236 90.3244V132.608L235.974 151.861L270 132.608ZM262.179 95.1331V127.697L235.974 142.525L210.761 127.697V95.1331L235.974 79.4542L262.179 95.1331Z" fill="black"/>
<path fill-rule="evenodd" clip-rule="evenodd" d="M230.089 81.3887V39.1053L196.063 18.7466L163.324 39.1053V81.3887L196.063 100.642L230.089 81.3887ZM222.267 43.914V76.478L196.063 91.3055L170.85 76.478V43.914L196.063 28.235L222.267 43.914Z" fill="black"/>
<path fill-rule="evenodd" clip-rule="evenodd" d="M97.8474 68.4906V22.2595L135.06 0L170.865 22.2595V68.4906L135.06 89.5414L97.8474 68.4906ZM106.401 27.5171V63.1214L135.06 79.3333L162.635 63.1214V27.5171L135.06 10.3743L106.401 27.5171Z" fill="black"/>
<path d="M129.114 79.1778H141.253V273H129.114V79.1778Z" fill="black"/>
</svg>
